<?xml version="1.0" encoding="UTF-8" standalone="no"?>
<!DOCTYPE svg PUBLIC "-//W3C//DTD SVG 1.1//EN" "http://www.w3.org/Graphics/SVG/1.1/DTD/svg11.dtd">
<svg width="100%" height="100%" viewBox="0 0 150 20" version="1.1" xmlns="http://www.w3.org/2000/svg" xmlns:xlink="http://www.w3.org/1999/xlink" xml:space="preserve" xmlns:serif="http://www.serif.com/" style="fill-rule:evenodd;clip-rule:evenodd;stroke-linejoin:round;stroke-miterlimit:2;">
    <g transform="matrix(1,0,0,1,-1.69843,1.73016)">
        <g transform="matrix(16.0191,0,0,16.0191,1.05704,12.8182)">
            <path d="M0.04,-0.274C0.04,-0.36 0.053,-0.441 0.078,-0.516C0.103,-0.591 0.139,-0.657 0.187,-0.714L0.242,-0.714C0.194,-0.655 0.157,-0.587 0.131,-0.512C0.106,-0.437 0.093,-0.358 0.093,-0.275C0.093,-0.118 0.142,0.027 0.241,0.158L0.187,0.158C0.139,0.103 0.103,0.038 0.078,-0.036C0.053,-0.11 0.04,-0.189 0.04,-0.274Z" style="fill-rule:nonzero;"/>
        </g>
        <g transform="matrix(16.0191,0,0,16.0191,5.4138,12.8182)">
            <path d="M0.557,-0.182L0.434,-0.182L0.434,0L0.388,0L0.388,-0.182L0.021,-0.182L0.021,-0.215L0.375,-0.718L0.434,-0.718L0.434,-0.224L0.557,-0.224L0.557,-0.182ZM0.388,-0.224L0.388,-0.428C0.388,-0.527 0.39,-0.609 0.395,-0.676L0.391,-0.676C0.385,-0.664 0.365,-0.633 0.331,-0.584L0.079,-0.224L0.388,-0.224Z" style="fill-rule:nonzero;"/>
        </g>
        <g transform="matrix(16.0191,0,0,16.0191,14.5575,12.8182)">
            <path d="M0.333,0L0.285,0L0.285,-0.52C0.285,-0.567 0.287,-0.616 0.291,-0.667C0.286,-0.662 0.281,-0.657 0.276,-0.653C0.271,-0.648 0.22,-0.609 0.125,-0.534L0.097,-0.569L0.291,-0.714L0.333,-0.714L0.333,0Z" style="fill-rule:nonzero;"/>
        </g>
        <g transform="matrix(16.0191,0,0,16.0191,23.7012,12.8182)">
            <path d="M0.502,0L0.055,0L0.055,-0.043L0.245,-0.241C0.299,-0.297 0.336,-0.339 0.357,-0.368C0.379,-0.397 0.395,-0.425 0.405,-0.452C0.415,-0.479 0.42,-0.507 0.42,-0.536C0.42,-0.579 0.406,-0.613 0.378,-0.64C0.35,-0.667 0.314,-0.68 0.269,-0.68C0.209,-0.68 0.153,-0.659 0.098,-0.615L0.072,-0.649C0.131,-0.699 0.197,-0.724 0.27,-0.724C0.332,-0.724 0.381,-0.708 0.417,-0.674C0.452,-0.641 0.47,-0.595 0.47,-0.537C0.47,-0.49 0.458,-0.444 0.434,-0.4C0.41,-0.356 0.367,-0.302 0.303,-0.237L0.12,-0.049L0.12,-0.047L0.502,-0.047L0.502,0Z" style="fill-rule:nonzero;"/>
        </g>
        <g transform="matrix(16.0191,0,0,16.0191,32.8449,12.8182)">
            <path d="M0.232,-0.274C0.232,-0.188 0.219,-0.109 0.194,-0.035C0.169,0.039 0.132,0.104 0.085,0.158L0.031,0.158C0.13,0.027 0.179,-0.118 0.179,-0.275C0.179,-0.359 0.166,-0.438 0.141,-0.513C0.115,-0.588 0.078,-0.655 0.03,-0.714L0.085,-0.714C0.133,-0.657 0.169,-0.591 0.194,-0.515C0.219,-0.44 0.232,-0.36 0.232,-0.274Z" style="fill-rule:nonzero;"/>
        </g>
        <g transform="matrix(16.0191,0,0,16.0191,41.3629,12.8182)">
            <path d="M0.163,0L0.457,-0.667L0.053,-0.667L0.053,-0.714L0.515,-0.714L0.515,-0.678L0.22,0L0.163,0Z" style="fill-rule:nonzero;"/>
        </g>
        <g transform="matrix(16.0191,0,0,16.0191,50.5066,12.8182)">
            <path d="M0.502,0L0.055,0L0.055,-0.043L0.245,-0.241C0.299,-0.297 0.336,-0.339 0.357,-0.368C0.379,-0.397 0.395,-0.425 0.405,-0.452C0.415,-0.479 0.42,-0.507 0.42,-0.536C0.42,-0.579 0.406,-0.613 0.378,-0.64C0.35,-0.667 0.314,-0.68 0.269,-0.68C0.209,-0.68 0.153,-0.659 0.098,-0.615L0.072,-0.649C0.131,-0.699 0.197,-0.724 0.27,-0.724C0.332,-0.724 0.381,-0.708 0.417,-0.674C0.452,-0.641 0.47,-0.595 0.47,-0.537C0.47,-0.49 0.458,-0.444 0.434,-0.4C0.41,-0.356 0.367,-0.302 0.303,-0.237L0.12,-0.049L0.12,-0.047L0.502,-0.047L0.502,0Z" style="fill-rule:nonzero;"/>
        </g>
        <g transform="matrix(16.0191,0,0,16.0191,59.6503,12.8182)">
            <path d="M0.502,0L0.055,0L0.055,-0.043L0.245,-0.241C0.299,-0.297 0.336,-0.339 0.357,-0.368C0.379,-0.397 0.395,-0.425 0.405,-0.452C0.415,-0.479 0.42,-0.507 0.42,-0.536C0.42,-0.579 0.406,-0.613 0.378,-0.64C0.35,-0.667 0.314,-0.68 0.269,-0.68C0.209,-0.68 0.153,-0.659 0.098,-0.615L0.072,-0.649C0.131,-0.699 0.197,-0.724 0.27,-0.724C0.332,-0.724 0.381,-0.708 0.417,-0.674C0.452,-0.641 0.47,-0.595 0.47,-0.537C0.47,-0.49 0.458,-0.444 0.434,-0.4C0.41,-0.356 0.367,-0.302 0.303,-0.237L0.12,-0.049L0.12,-0.047L0.502,-0.047L0.502,0Z" style="fill-rule:nonzero;"/>
        </g>
        <g transform="matrix(16.0191,0,0,16.0191,72.9552,12.8182)">
            <path d="M0.284,-0.726C0.345,-0.726 0.393,-0.711 0.43,-0.68C0.467,-0.649 0.486,-0.607 0.486,-0.554C0.486,-0.518 0.474,-0.486 0.451,-0.458C0.428,-0.43 0.391,-0.404 0.34,-0.38C0.402,-0.354 0.446,-0.326 0.472,-0.295C0.497,-0.265 0.51,-0.228 0.51,-0.184C0.51,-0.125 0.489,-0.078 0.448,-0.043C0.407,-0.008 0.352,0.01 0.282,0.01C0.21,0.01 0.155,-0.007 0.117,-0.04C0.078,-0.072 0.059,-0.12 0.059,-0.183C0.059,-0.226 0.073,-0.263 0.1,-0.295C0.127,-0.328 0.168,-0.355 0.225,-0.378C0.173,-0.403 0.136,-0.429 0.114,-0.456C0.093,-0.484 0.082,-0.517 0.082,-0.555C0.082,-0.589 0.091,-0.619 0.108,-0.645C0.125,-0.671 0.149,-0.691 0.18,-0.705C0.212,-0.719 0.246,-0.726 0.284,-0.726ZM0.109,-0.176C0.109,-0.131 0.124,-0.096 0.155,-0.071C0.185,-0.047 0.228,-0.034 0.282,-0.034C0.336,-0.034 0.379,-0.047 0.411,-0.073C0.444,-0.1 0.46,-0.135 0.46,-0.18C0.46,-0.221 0.447,-0.253 0.422,-0.279C0.396,-0.304 0.347,-0.33 0.274,-0.358C0.214,-0.335 0.172,-0.309 0.146,-0.281C0.121,-0.253 0.109,-0.218 0.109,-0.176ZM0.283,-0.682C0.237,-0.682 0.2,-0.671 0.173,-0.648C0.145,-0.626 0.131,-0.595 0.131,-0.555C0.131,-0.532 0.136,-0.512 0.146,-0.495C0.156,-0.477 0.171,-0.462 0.191,-0.448C0.21,-0.433 0.243,-0.417 0.288,-0.398C0.341,-0.418 0.379,-0.441 0.402,-0.466C0.425,-0.491 0.437,-0.52 0.437,-0.555C0.437,-0.594 0.423,-0.625 0.396,-0.648C0.368,-0.671 0.331,-0.682 0.283,-0.682Z" style="fill-rule:nonzero;"/>
        </g>
        <g transform="matrix(16.0191,0,0,16.0191,82.0989,12.8182)">
            <path d="M0.262,-0.429C0.338,-0.429 0.398,-0.411 0.442,-0.374C0.486,-0.337 0.508,-0.287 0.508,-0.222C0.508,-0.149 0.485,-0.092 0.439,-0.051C0.394,-0.011 0.331,0.01 0.251,0.01C0.215,0.01 0.182,0.006 0.15,-0.001C0.118,-0.008 0.091,-0.018 0.07,-0.031L0.07,-0.081C0.105,-0.063 0.136,-0.051 0.164,-0.044C0.191,-0.037 0.22,-0.033 0.251,-0.033C0.313,-0.033 0.364,-0.05 0.401,-0.083C0.439,-0.116 0.458,-0.16 0.458,-0.217C0.458,-0.27 0.44,-0.312 0.403,-0.342C0.366,-0.372 0.316,-0.387 0.253,-0.387C0.211,-0.387 0.166,-0.381 0.12,-0.368L0.091,-0.387L0.119,-0.714L0.463,-0.714L0.463,-0.667L0.165,-0.667L0.143,-0.415C0.194,-0.424 0.234,-0.429 0.262,-0.429Z" style="fill-rule:nonzero;"/>
        </g>
        <g transform="matrix(16.0191,0,0,16.0191,91.2426,12.8182)">
            <path d="M0.064,-0.304C0.064,-0.397 0.077,-0.475 0.102,-0.538C0.127,-0.602 0.163,-0.649 0.209,-0.679C0.256,-0.71 0.312,-0.725 0.377,-0.725C0.408,-0.725 0.436,-0.721 0.461,-0.714L0.461,-0.671C0.437,-0.68 0.409,-0.684 0.375,-0.684C0.295,-0.684 0.232,-0.655 0.187,-0.597C0.142,-0.539 0.117,-0.455 0.112,-0.344L0.118,-0.344C0.143,-0.376 0.171,-0.4 0.203,-0.417C0.235,-0.433 0.269,-0.441 0.304,-0.441C0.371,-0.441 0.423,-0.422 0.461,-0.384C0.498,-0.346 0.517,-0.293 0.517,-0.226C0.517,-0.153 0.497,-0.096 0.458,-0.053C0.418,-0.011 0.365,0.01 0.298,0.01C0.226,0.01 0.169,-0.018 0.127,-0.073C0.085,-0.128 0.064,-0.205 0.064,-0.304ZM0.298,-0.033C0.351,-0.033 0.393,-0.05 0.422,-0.083C0.452,-0.117 0.467,-0.165 0.467,-0.227C0.467,-0.282 0.452,-0.324 0.423,-0.355C0.394,-0.386 0.354,-0.401 0.303,-0.401C0.27,-0.401 0.239,-0.394 0.211,-0.379C0.182,-0.364 0.16,-0.345 0.143,-0.321C0.126,-0.296 0.117,-0.271 0.117,-0.246C0.117,-0.21 0.125,-0.175 0.141,-0.142C0.157,-0.108 0.179,-0.082 0.207,-0.063C0.234,-0.043 0.265,-0.033 0.298,-0.033Z" style="fill-rule:nonzero;"/>
        </g>
        <g transform="matrix(16.0191,0,0,16.0191,100.386,12.8182)">
            <path d="M0.515,-0.359C0.515,-0.234 0.496,-0.141 0.458,-0.081C0.42,-0.02 0.362,0.01 0.284,0.01C0.21,0.01 0.153,-0.021 0.114,-0.083C0.076,-0.145 0.056,-0.237 0.056,-0.359C0.056,-0.483 0.075,-0.575 0.113,-0.635C0.15,-0.695 0.207,-0.725 0.284,-0.725C0.359,-0.725 0.417,-0.694 0.456,-0.632C0.495,-0.57 0.515,-0.479 0.515,-0.359ZM0.109,-0.359C0.109,-0.248 0.123,-0.166 0.152,-0.114C0.181,-0.061 0.225,-0.034 0.284,-0.034C0.346,-0.034 0.391,-0.062 0.419,-0.116C0.447,-0.171 0.461,-0.252 0.461,-0.359C0.461,-0.464 0.447,-0.544 0.419,-0.599C0.391,-0.654 0.346,-0.681 0.284,-0.681C0.223,-0.681 0.178,-0.654 0.15,-0.599C0.123,-0.544 0.109,-0.464 0.109,-0.359Z" style="fill-rule:nonzero;"/>
        </g>
    </g>
</svg>
