<?xml version="1.0" encoding="UTF-8" standalone="no"?>
<!DOCTYPE svg PUBLIC "-//W3C//DTD SVG 1.1//EN" "http://www.w3.org/Graphics/SVG/1.1/DTD/svg11.dtd">
<svg width="100%" height="100%" viewBox="0 0 170 20" version="1.1" xmlns="http://www.w3.org/2000/svg" xmlns:xlink="http://www.w3.org/1999/xlink" xml:space="preserve" xmlns:serif="http://www.serif.com/" style="fill-rule:evenodd;clip-rule:evenodd;stroke-linejoin:round;stroke-miterlimit:2;">
    <g transform="matrix(1,0,0,1,-1.71408,1.73016)">
        <g transform="matrix(16.0191,0,0,16.0191,1.05704,12.8182)">
            <path d="M0.418,-0.138C0.418,-0.091 0.4,-0.054 0.364,-0.029C0.328,-0.003 0.276,0.01 0.21,0.01C0.139,0.01 0.083,-0.001 0.041,-0.023L0.041,-0.075C0.094,-0.049 0.151,-0.035 0.21,-0.035C0.262,-0.035 0.302,-0.044 0.329,-0.061C0.357,-0.079 0.37,-0.102 0.37,-0.131C0.37,-0.158 0.359,-0.18 0.338,-0.198C0.316,-0.216 0.28,-0.234 0.231,-0.252C0.178,-0.271 0.141,-0.288 0.119,-0.302C0.098,-0.315 0.081,-0.331 0.071,-0.348C0.06,-0.366 0.054,-0.387 0.054,-0.412C0.054,-0.452 0.071,-0.483 0.104,-0.506C0.138,-0.529 0.184,-0.541 0.244,-0.541C0.301,-0.541 0.356,-0.53 0.407,-0.509L0.389,-0.465C0.337,-0.486 0.289,-0.497 0.244,-0.497C0.201,-0.497 0.167,-0.49 0.141,-0.476C0.116,-0.461 0.103,-0.441 0.103,-0.416C0.103,-0.388 0.113,-0.366 0.133,-0.35C0.152,-0.333 0.191,-0.314 0.248,-0.294C0.296,-0.277 0.331,-0.261 0.353,-0.247C0.374,-0.233 0.391,-0.218 0.402,-0.2C0.413,-0.183 0.418,-0.162 0.418,-0.138Z" style="fill-rule:nonzero;"/>
        </g>
        <g transform="matrix(16.0191,0,0,16.0191,8.51906,12.8182)">
            <path d="M0.418,-0.138C0.418,-0.091 0.4,-0.054 0.364,-0.029C0.328,-0.003 0.276,0.01 0.21,0.01C0.139,0.01 0.083,-0.001 0.041,-0.023L0.041,-0.075C0.094,-0.049 0.151,-0.035 0.21,-0.035C0.262,-0.035 0.302,-0.044 0.329,-0.061C0.357,-0.079 0.37,-0.102 0.37,-0.131C0.37,-0.158 0.359,-0.18 0.338,-0.198C0.316,-0.216 0.28,-0.234 0.231,-0.252C0.178,-0.271 0.141,-0.288 0.119,-0.302C0.098,-0.315 0.081,-0.331 0.071,-0.348C0.06,-0.366 0.054,-0.387 0.054,-0.412C0.054,-0.452 0.071,-0.483 0.104,-0.506C0.138,-0.529 0.184,-0.541 0.244,-0.541C0.301,-0.541 0.356,-0.53 0.407,-0.509L0.389,-0.465C0.337,-0.486 0.289,-0.497 0.244,-0.497C0.201,-0.497 0.167,-0.49 0.141,-0.476C0.116,-0.461 0.103,-0.441 0.103,-0.416C0.103,-0.388 0.113,-0.366 0.133,-0.35C0.152,-0.333 0.191,-0.314 0.248,-0.294C0.296,-0.277 0.331,-0.261 0.353,-0.247C0.374,-0.233 0.391,-0.218 0.402,-0.2C0.413,-0.183 0.418,-0.162 0.418,-0.138Z" style="fill-rule:nonzero;"/>
        </g>
        <g transform="matrix(16.0191,0,0,16.0191,15.9811,12.8182)">
            <path d="M0.303,0.01C0.226,0.01 0.166,-0.014 0.123,-0.062C0.08,-0.109 0.058,-0.176 0.058,-0.261C0.058,-0.346 0.079,-0.414 0.121,-0.465C0.162,-0.516 0.218,-0.541 0.289,-0.541C0.352,-0.541 0.401,-0.519 0.437,-0.476C0.473,-0.432 0.491,-0.373 0.491,-0.298L0.491,-0.259L0.109,-0.259C0.11,-0.186 0.127,-0.13 0.16,-0.092C0.193,-0.053 0.241,-0.034 0.303,-0.034C0.333,-0.034 0.36,-0.036 0.383,-0.041C0.406,-0.045 0.435,-0.054 0.47,-0.068L0.47,-0.024C0.44,-0.011 0.413,-0.002 0.387,0.003C0.362,0.007 0.334,0.01 0.303,0.01ZM0.289,-0.498C0.238,-0.498 0.197,-0.481 0.166,-0.448C0.135,-0.414 0.117,-0.365 0.112,-0.302L0.44,-0.302C0.44,-0.363 0.427,-0.411 0.4,-0.446C0.373,-0.481 0.336,-0.498 0.289,-0.498Z" style="fill-rule:nonzero;"/>
        </g>
        <g transform="matrix(16.0191,0,0,16.0191,24.7728,12.8182)">
            <path d="M0.137,0L0.089,0L0.089,-0.531L0.137,-0.531L0.137,0ZM0.082,-0.678C0.082,-0.709 0.092,-0.725 0.113,-0.725C0.123,-0.725 0.131,-0.721 0.136,-0.713C0.142,-0.705 0.145,-0.693 0.145,-0.678C0.145,-0.664 0.142,-0.652 0.136,-0.644C0.131,-0.635 0.123,-0.631 0.113,-0.631C0.092,-0.631 0.082,-0.647 0.082,-0.678Z" style="fill-rule:nonzero;"/>
        </g>
        <g transform="matrix(16.0191,0,0,16.0191,28.3943,12.8182)">
            <path d="M0.229,-0.033C0.26,-0.033 0.286,-0.036 0.309,-0.041L0.309,-0.002C0.286,0.006 0.259,0.01 0.228,0.01C0.181,0.01 0.147,-0.003 0.124,-0.028C0.102,-0.053 0.091,-0.092 0.091,-0.146L0.091,-0.489L0.012,-0.489L0.012,-0.517L0.091,-0.539L0.115,-0.659L0.14,-0.659L0.14,-0.531L0.296,-0.531L0.296,-0.489L0.14,-0.489L0.14,-0.153C0.14,-0.112 0.147,-0.082 0.162,-0.063C0.176,-0.043 0.198,-0.033 0.229,-0.033Z" style="fill-rule:nonzero;"/>
        </g>
        <g transform="matrix(16.0191,0,0,16.0191,33.7601,12.8182)">
            <path d="M0.411,0L0.399,-0.084L0.395,-0.084C0.368,-0.05 0.341,-0.026 0.313,-0.011C0.285,0.003 0.251,0.01 0.213,0.01C0.161,0.01 0.12,-0.004 0.091,-0.03C0.062,-0.057 0.048,-0.094 0.048,-0.141C0.048,-0.193 0.069,-0.233 0.113,-0.262C0.156,-0.29 0.218,-0.306 0.3,-0.307L0.401,-0.31L0.401,-0.345C0.401,-0.396 0.391,-0.434 0.37,-0.459C0.35,-0.485 0.317,-0.498 0.271,-0.498C0.222,-0.498 0.171,-0.484 0.118,-0.457L0.1,-0.499C0.158,-0.526 0.216,-0.54 0.273,-0.54C0.331,-0.54 0.375,-0.525 0.404,-0.495C0.432,-0.464 0.447,-0.417 0.447,-0.353L0.447,0L0.411,0ZM0.216,-0.034C0.272,-0.034 0.317,-0.05 0.35,-0.083C0.383,-0.115 0.399,-0.16 0.399,-0.218L0.399,-0.27L0.306,-0.266C0.232,-0.263 0.178,-0.251 0.147,-0.231C0.115,-0.212 0.099,-0.181 0.099,-0.139C0.099,-0.106 0.109,-0.08 0.13,-0.062C0.15,-0.043 0.179,-0.034 0.216,-0.034Z" style="fill-rule:nonzero;"/>
        </g>
        <g transform="matrix(16.0191,0,0,16.0191,42.2467,12.8182)">
            <path d="M0.459,0L0.459,-0.344C0.459,-0.398 0.448,-0.436 0.425,-0.461C0.403,-0.485 0.368,-0.497 0.321,-0.497C0.257,-0.497 0.211,-0.481 0.181,-0.449C0.152,-0.417 0.137,-0.365 0.137,-0.293L0.137,0L0.089,0L0.089,-0.531L0.13,-0.531L0.139,-0.458L0.142,-0.458C0.177,-0.513 0.238,-0.541 0.326,-0.541C0.447,-0.541 0.507,-0.476 0.507,-0.347L0.507,0L0.459,0Z" style="fill-rule:nonzero;"/>
        </g>
        <g transform="matrix(16.0191,0,0,16.0191,51.6955,12.8182)">
            <path d="M0.411,0L0.399,-0.084L0.395,-0.084C0.368,-0.05 0.341,-0.026 0.313,-0.011C0.285,0.003 0.251,0.01 0.213,0.01C0.161,0.01 0.12,-0.004 0.091,-0.03C0.062,-0.057 0.048,-0.094 0.048,-0.141C0.048,-0.193 0.069,-0.233 0.113,-0.262C0.156,-0.29 0.218,-0.306 0.3,-0.307L0.401,-0.31L0.401,-0.345C0.401,-0.396 0.391,-0.434 0.37,-0.459C0.35,-0.485 0.317,-0.498 0.271,-0.498C0.222,-0.498 0.171,-0.484 0.118,-0.457L0.1,-0.499C0.158,-0.526 0.216,-0.54 0.273,-0.54C0.331,-0.54 0.375,-0.525 0.404,-0.495C0.432,-0.464 0.447,-0.417 0.447,-0.353L0.447,0L0.411,0ZM0.216,-0.034C0.272,-0.034 0.317,-0.05 0.35,-0.083C0.383,-0.115 0.399,-0.16 0.399,-0.218L0.399,-0.27L0.306,-0.266C0.232,-0.263 0.178,-0.251 0.147,-0.231C0.115,-0.212 0.099,-0.181 0.099,-0.139C0.099,-0.106 0.109,-0.08 0.13,-0.062C0.15,-0.043 0.179,-0.034 0.216,-0.034Z" style="fill-rule:nonzero;"/>
        </g>
        <g transform="matrix(16.0191,0,0,16.0191,60.1822,12.8182)">
            <path d="M0.136,-0.233L0.407,-0.531L0.466,-0.531L0.257,-0.304L0.484,0L0.426,0L0.224,-0.268L0.137,-0.189L0.137,0L0.089,0L0.089,-0.76L0.137,-0.76L0.137,-0.379L0.134,-0.233L0.136,-0.233Z" style="fill-rule:nonzero;"/>
        </g>
        <g transform="matrix(16.0191,0,0,16.0191,67.9336,12.8182)">
            <path d="M0.137,0L0.089,0L0.089,-0.531L0.137,-0.531L0.137,0ZM0.082,-0.678C0.082,-0.709 0.092,-0.725 0.113,-0.725C0.123,-0.725 0.131,-0.721 0.136,-0.713C0.142,-0.705 0.145,-0.693 0.145,-0.678C0.145,-0.664 0.142,-0.652 0.136,-0.644C0.131,-0.635 0.123,-0.631 0.113,-0.631C0.092,-0.631 0.082,-0.647 0.082,-0.678Z" style="fill-rule:nonzero;"/>
        </g>
        <g transform="matrix(16.0191,0,0,16.0191,71.5551,12.8182)">
            <path d="M0.418,-0.138C0.418,-0.091 0.4,-0.054 0.364,-0.029C0.328,-0.003 0.276,0.01 0.21,0.01C0.139,0.01 0.083,-0.001 0.041,-0.023L0.041,-0.075C0.094,-0.049 0.151,-0.035 0.21,-0.035C0.262,-0.035 0.302,-0.044 0.329,-0.061C0.357,-0.079 0.37,-0.102 0.37,-0.131C0.37,-0.158 0.359,-0.18 0.338,-0.198C0.316,-0.216 0.28,-0.234 0.231,-0.252C0.178,-0.271 0.141,-0.288 0.119,-0.302C0.098,-0.315 0.081,-0.331 0.071,-0.348C0.06,-0.366 0.054,-0.387 0.054,-0.412C0.054,-0.452 0.071,-0.483 0.104,-0.506C0.138,-0.529 0.184,-0.541 0.244,-0.541C0.301,-0.541 0.356,-0.53 0.407,-0.509L0.389,-0.465C0.337,-0.486 0.289,-0.497 0.244,-0.497C0.201,-0.497 0.167,-0.49 0.141,-0.476C0.116,-0.461 0.103,-0.441 0.103,-0.416C0.103,-0.388 0.113,-0.366 0.133,-0.35C0.152,-0.333 0.191,-0.314 0.248,-0.294C0.296,-0.277 0.331,-0.261 0.353,-0.247C0.374,-0.233 0.391,-0.218 0.402,-0.2C0.413,-0.183 0.418,-0.162 0.418,-0.138Z" style="fill-rule:nonzero;"/>
        </g>
        <g transform="matrix(16.0191,0,0,16.0191,79.0171,12.8182)">
            <path d="M0.831,-0.354C0.831,-0.28 0.816,-0.22 0.787,-0.175C0.757,-0.13 0.717,-0.108 0.667,-0.108C0.638,-0.108 0.615,-0.117 0.596,-0.134C0.578,-0.152 0.568,-0.176 0.565,-0.206L0.563,-0.206C0.549,-0.174 0.529,-0.149 0.502,-0.133C0.476,-0.116 0.445,-0.108 0.41,-0.108C0.362,-0.108 0.325,-0.124 0.298,-0.155C0.272,-0.186 0.259,-0.23 0.259,-0.287C0.259,-0.353 0.278,-0.407 0.318,-0.448C0.357,-0.49 0.408,-0.511 0.471,-0.511C0.516,-0.511 0.563,-0.505 0.611,-0.491L0.6,-0.265L0.6,-0.25C0.6,-0.216 0.606,-0.191 0.617,-0.174C0.629,-0.156 0.647,-0.148 0.674,-0.148C0.707,-0.148 0.735,-0.167 0.756,-0.205C0.777,-0.243 0.788,-0.292 0.788,-0.353C0.788,-0.416 0.775,-0.472 0.75,-0.519C0.724,-0.567 0.687,-0.603 0.639,-0.629C0.592,-0.654 0.537,-0.667 0.476,-0.667C0.401,-0.667 0.335,-0.651 0.278,-0.618C0.221,-0.586 0.177,-0.54 0.146,-0.481C0.115,-0.422 0.1,-0.354 0.1,-0.277C0.1,-0.172 0.127,-0.091 0.182,-0.034C0.236,0.023 0.313,0.052 0.413,0.052C0.443,0.052 0.474,0.049 0.505,0.043C0.536,0.037 0.574,0.026 0.618,0.009L0.618,0.057C0.552,0.083 0.485,0.096 0.416,0.096C0.302,0.096 0.214,0.064 0.15,-0.002C0.087,-0.067 0.055,-0.158 0.055,-0.274C0.055,-0.357 0.073,-0.432 0.108,-0.499C0.143,-0.565 0.193,-0.617 0.258,-0.654C0.323,-0.691 0.396,-0.709 0.477,-0.709C0.547,-0.709 0.609,-0.694 0.663,-0.666C0.717,-0.637 0.758,-0.595 0.787,-0.541C0.816,-0.487 0.831,-0.425 0.831,-0.354ZM0.309,-0.288C0.309,-0.242 0.318,-0.207 0.336,-0.183C0.354,-0.16 0.382,-0.148 0.421,-0.148C0.504,-0.148 0.548,-0.204 0.554,-0.317L0.562,-0.459C0.536,-0.468 0.505,-0.472 0.468,-0.472C0.419,-0.472 0.381,-0.455 0.352,-0.422C0.323,-0.389 0.309,-0.344 0.309,-0.288Z" style="fill-rule:nonzero;"/>
        </g>
        <g transform="matrix(16.0191,0,0,16.0191,93.2137,12.8182)">
            <path d="M0.503,-0.531L0.503,-0.497L0.393,-0.49C0.422,-0.454 0.437,-0.414 0.437,-0.37C0.437,-0.319 0.42,-0.278 0.386,-0.246C0.352,-0.214 0.306,-0.198 0.249,-0.198C0.225,-0.198 0.208,-0.199 0.198,-0.201C0.179,-0.191 0.164,-0.179 0.154,-0.166C0.144,-0.152 0.139,-0.137 0.139,-0.122C0.139,-0.105 0.146,-0.093 0.158,-0.085C0.171,-0.077 0.193,-0.073 0.223,-0.073L0.316,-0.073C0.374,-0.073 0.418,-0.062 0.448,-0.038C0.479,-0.015 0.494,0.019 0.494,0.065C0.494,0.121 0.471,0.164 0.426,0.195C0.381,0.225 0.316,0.24 0.232,0.24C0.165,0.24 0.114,0.227 0.077,0.202C0.04,0.176 0.022,0.14 0.022,0.094C0.022,0.058 0.033,0.028 0.056,0.003C0.079,-0.021 0.109,-0.037 0.148,-0.046C0.132,-0.053 0.119,-0.062 0.11,-0.075C0.1,-0.087 0.095,-0.102 0.095,-0.118C0.095,-0.154 0.118,-0.185 0.163,-0.212C0.132,-0.225 0.108,-0.245 0.091,-0.272C0.074,-0.299 0.065,-0.33 0.065,-0.365C0.065,-0.418 0.082,-0.461 0.115,-0.493C0.149,-0.525 0.195,-0.541 0.252,-0.541C0.287,-0.541 0.314,-0.538 0.333,-0.531L0.503,-0.531ZM0.073,0.09C0.073,0.163 0.127,0.199 0.236,0.199C0.375,0.199 0.445,0.155 0.445,0.066C0.445,0.034 0.434,0.011 0.412,-0.003C0.39,-0.018 0.355,-0.025 0.306,-0.025L0.219,-0.025C0.122,-0.025 0.073,0.013 0.073,0.09ZM0.114,-0.365C0.114,-0.324 0.126,-0.292 0.151,-0.27C0.176,-0.247 0.209,-0.236 0.251,-0.236C0.295,-0.236 0.329,-0.247 0.353,-0.27C0.376,-0.292 0.388,-0.325 0.388,-0.367C0.388,-0.412 0.376,-0.446 0.352,-0.469C0.328,-0.492 0.294,-0.503 0.25,-0.503C0.208,-0.503 0.174,-0.491 0.15,-0.467C0.126,-0.442 0.114,-0.409 0.114,-0.365Z" style="fill-rule:nonzero;"/>
        </g>
        <g transform="matrix(16.0191,0,0,16.0191,101.591,12.8182)">
            <path d="M0.752,0L0.752,-0.348C0.752,-0.4 0.742,-0.438 0.722,-0.461C0.701,-0.485 0.671,-0.497 0.629,-0.497C0.575,-0.497 0.534,-0.482 0.508,-0.452C0.482,-0.422 0.469,-0.375 0.469,-0.311L0.469,0L0.42,0L0.42,-0.363C0.42,-0.452 0.379,-0.497 0.297,-0.497C0.241,-0.497 0.201,-0.481 0.175,-0.448C0.15,-0.416 0.137,-0.364 0.137,-0.293L0.137,0L0.089,0L0.089,-0.531L0.129,-0.531L0.139,-0.458L0.142,-0.458C0.157,-0.484 0.178,-0.505 0.205,-0.519C0.232,-0.534 0.261,-0.541 0.294,-0.541C0.378,-0.541 0.431,-0.51 0.455,-0.447L0.457,-0.447C0.474,-0.477 0.497,-0.5 0.527,-0.517C0.556,-0.533 0.589,-0.541 0.626,-0.541C0.684,-0.541 0.727,-0.526 0.756,-0.495C0.785,-0.464 0.8,-0.415 0.8,-0.347L0.8,0L0.752,0Z" style="fill-rule:nonzero;"/>
        </g>
        <g transform="matrix(16.0191,0,0,16.0191,115.733,12.8182)">
            <path d="M0.411,0L0.399,-0.084L0.395,-0.084C0.368,-0.05 0.341,-0.026 0.313,-0.011C0.285,0.003 0.251,0.01 0.213,0.01C0.161,0.01 0.12,-0.004 0.091,-0.03C0.062,-0.057 0.048,-0.094 0.048,-0.141C0.048,-0.193 0.069,-0.233 0.113,-0.262C0.156,-0.29 0.218,-0.306 0.3,-0.307L0.401,-0.31L0.401,-0.345C0.401,-0.396 0.391,-0.434 0.37,-0.459C0.35,-0.485 0.317,-0.498 0.271,-0.498C0.222,-0.498 0.171,-0.484 0.118,-0.457L0.1,-0.499C0.158,-0.526 0.216,-0.54 0.273,-0.54C0.331,-0.54 0.375,-0.525 0.404,-0.495C0.432,-0.464 0.447,-0.417 0.447,-0.353L0.447,0L0.411,0ZM0.216,-0.034C0.272,-0.034 0.317,-0.05 0.35,-0.083C0.383,-0.115 0.399,-0.16 0.399,-0.218L0.399,-0.27L0.306,-0.266C0.232,-0.263 0.178,-0.251 0.147,-0.231C0.115,-0.212 0.099,-0.181 0.099,-0.139C0.099,-0.106 0.109,-0.08 0.13,-0.062C0.15,-0.043 0.179,-0.034 0.216,-0.034Z" style="fill-rule:nonzero;"/>
        </g>
        <g transform="matrix(16.0191,0,0,16.0191,124.219,12.8182)">
            <path d="M0.137,0L0.089,0L0.089,-0.531L0.137,-0.531L0.137,0ZM0.082,-0.678C0.082,-0.709 0.092,-0.725 0.113,-0.725C0.123,-0.725 0.131,-0.721 0.136,-0.713C0.142,-0.705 0.145,-0.693 0.145,-0.678C0.145,-0.664 0.142,-0.652 0.136,-0.644C0.131,-0.635 0.123,-0.631 0.113,-0.631C0.092,-0.631 0.082,-0.647 0.082,-0.678Z" style="fill-rule:nonzero;"/>
        </g>
        <g transform="matrix(16.0191,0,0,16.0191,127.841,12.8182)">
            <rect x="0.089" y="-0.76" width="0.048" height="0.76" style="fill-rule:nonzero;"/>
        </g>
        <g transform="matrix(16.0191,0,0,16.0191,131.462,12.8182)">
            <path d="M0.079,-0.038C0.079,-0.07 0.092,-0.086 0.118,-0.086C0.145,-0.086 0.158,-0.07 0.158,-0.038C0.158,-0.006 0.145,0.01 0.118,0.01C0.092,0.01 0.079,-0.006 0.079,-0.038Z" style="fill-rule:nonzero;"/>
        </g>
        <g transform="matrix(16.0191,0,0,16.0191,135.272,12.8182)">
            <path d="M0.301,0.01C0.225,0.01 0.166,-0.014 0.123,-0.062C0.08,-0.11 0.058,-0.177 0.058,-0.262C0.058,-0.35 0.08,-0.419 0.125,-0.468C0.17,-0.517 0.231,-0.541 0.308,-0.541C0.354,-0.541 0.398,-0.533 0.44,-0.517L0.427,-0.474C0.381,-0.489 0.341,-0.497 0.307,-0.497C0.242,-0.497 0.193,-0.477 0.159,-0.437C0.126,-0.397 0.109,-0.339 0.109,-0.263C0.109,-0.192 0.126,-0.135 0.159,-0.095C0.193,-0.054 0.24,-0.034 0.3,-0.034C0.348,-0.034 0.393,-0.043 0.434,-0.06L0.434,-0.015C0.4,0.001 0.356,0.01 0.301,0.01Z" style="fill-rule:nonzero;"/>
        </g>
        <g transform="matrix(16.0191,0,0,16.0191,142.882,12.8182)">
            <path d="M0.528,-0.266C0.528,-0.18 0.507,-0.112 0.465,-0.063C0.423,-0.015 0.365,0.01 0.291,0.01C0.244,0.01 0.203,-0.001 0.168,-0.024C0.132,-0.046 0.105,-0.079 0.086,-0.121C0.068,-0.163 0.058,-0.211 0.058,-0.266C0.058,-0.353 0.079,-0.42 0.121,-0.469C0.163,-0.517 0.221,-0.541 0.294,-0.541C0.367,-0.541 0.424,-0.517 0.466,-0.468C0.507,-0.419 0.528,-0.351 0.528,-0.266ZM0.109,-0.266C0.109,-0.193 0.125,-0.136 0.157,-0.095C0.189,-0.055 0.234,-0.034 0.293,-0.034C0.352,-0.034 0.397,-0.055 0.429,-0.095C0.461,-0.136 0.477,-0.193 0.477,-0.266C0.477,-0.339 0.461,-0.396 0.428,-0.437C0.396,-0.477 0.351,-0.497 0.292,-0.497C0.233,-0.497 0.188,-0.477 0.156,-0.437C0.125,-0.397 0.109,-0.34 0.109,-0.266Z" style="fill-rule:nonzero;"/>
        </g>
        <g transform="matrix(16.0191,0,0,16.0191,152.268,12.8182)">
            <path d="M0.752,0L0.752,-0.348C0.752,-0.4 0.742,-0.438 0.722,-0.461C0.701,-0.485 0.671,-0.497 0.629,-0.497C0.575,-0.497 0.534,-0.482 0.508,-0.452C0.482,-0.422 0.469,-0.375 0.469,-0.311L0.469,0L0.42,0L0.42,-0.363C0.42,-0.452 0.379,-0.497 0.297,-0.497C0.241,-0.497 0.201,-0.481 0.175,-0.448C0.15,-0.416 0.137,-0.364 0.137,-0.293L0.137,0L0.089,0L0.089,-0.531L0.129,-0.531L0.139,-0.458L0.142,-0.458C0.157,-0.484 0.178,-0.505 0.205,-0.519C0.232,-0.534 0.261,-0.541 0.294,-0.541C0.378,-0.541 0.431,-0.51 0.455,-0.447L0.457,-0.447C0.474,-0.477 0.497,-0.5 0.527,-0.517C0.556,-0.533 0.589,-0.541 0.626,-0.541C0.684,-0.541 0.727,-0.526 0.756,-0.495C0.785,-0.464 0.8,-0.415 0.8,-0.347L0.8,0L0.752,0Z" style="fill-rule:nonzero;"/>
        </g>
    </g>
</svg>
